<svg width="480" height="480" viewBox="0 0 480 480" fill="none" xmlns="http://www.w3.org/2000/svg">
<path d="M240 0C107.456 0 0 107.456 0 240C0 372.544 107.456 480 240 480C372.544 480 480 372.544 480 240C480 107.456 372.544 0 240 0ZM415.008 128H367.328C358.048 98.816 345.312 73.248 329.952 52.736C364.698 69.5062 394.134 95.553 415.008 128ZM256 128V34.624C286.24 43.552 315.712 77.088 333.856 128H256ZM343.168 160C347.68 179.584 350.592 201.024 351.52 224H256V160H343.168ZM224 34.624V128H146.144C164.288 77.088 193.76 43.552 224 34.624ZM224 160V224H128.48C129.408 201.024 132.32 179.584 136.832 160H224ZM96.48 224H32.8C34.528 201.504 39.68 179.936 48.032 160H104.352C99.9353 181.074 97.302 202.483 96.48 224ZM96.48 256C97.302 277.517 99.9353 298.926 104.352 320H48.032C39.5643 299.619 34.4216 278.011 32.8 256H96.48ZM128.48 256H224V320H136.832C132.072 298.971 129.276 277.546 128.48 256ZM224 352V445.376C193.76 436.448 164.288 402.912 146.144 352H224ZM256 445.376V352H333.856C315.712 402.912 286.24 436.448 256 445.376ZM256 320V256H351.52C350.724 277.546 347.928 298.971 343.168 320H256ZM383.52 256H447.2C445.578 278.011 440.436 299.619 431.968 320H375.648C380.065 298.926 382.698 277.517 383.52 256ZM383.52 224C382.698 202.483 380.065 181.074 375.648 160H431.968C440.32 179.936 445.472 201.504 447.2 224H383.52ZM150.048 52.736C134.72 73.248 121.952 98.816 112.672 128H64.992C85.8662 95.553 115.302 69.5062 150.048 52.736ZM64.992 352H112.672C121.952 381.184 134.688 406.752 150.048 427.264C115.302 410.494 85.8662 384.447 64.992 352ZM329.952 427.264C345.28 406.752 358.048 381.184 367.328 352H415.008C394.134 384.447 364.698 410.494 329.952 427.264Z" fill="#107ac5"/>
</svg>
